<?xml version="1.0" encoding="UTF-8" standalone="no"?>
<svg
   version="1.0"
   width="50.000000pt"
   height="50.000000pt"
   viewBox="0 0 50.000000 50.000000"
   preserveAspectRatio="xMidYMid meet"
   id="svg12"
   sodipodi:docname="b2c31d0f19b9d42f1b2da67d1da3c75f.svg"
   xmlns:inkscape="http://www.inkscape.org/namespaces/inkscape"
   xmlns:sodipodi="http://sodipodi.sourceforge.net/DTD/sodipodi-0.dtd"
   xmlns="http://www.w3.org/2000/svg"
   xmlns:svg="http://www.w3.org/2000/svg">
  <defs
     id="defs16" />
  <sodipodi:namedview
     id="namedview14"
     pagecolor="#ffffff"
     bordercolor="#666666"
     borderopacity="1.0"
     inkscape:pageshadow="2"
     inkscape:pageopacity="0.0"
     inkscape:pagecheckerboard="0"
     inkscape:document-units="pt" />
  <metadata
     id="metadata2">
Created by potrace 1.16, written by Peter Selinger 2001-2019
</metadata>
  <g
     transform="translate(0.000000,50.000000) scale(0.005000,-0.005000)"
     fill="#000000"
     stroke="none"
     id="g10">
    <path
       d="M5468 7133 c-1 -5 -2 -55 -3 -113 -1 -58 -4 -177 -8 -265 -3 -88 -7 -254 -9 -370 l-3 -210 78 -26 c42 -14 80 -29 84 -32 3 -4 18 -7 33 -7 37 0 93 -20 103 -37 4 -7 21 -13 37 -13 16 0 54 -11 84 -25 30 -14 63 -25 73 -25 11 0 23 -4 29 -8 5 -5 29 -14 54 -21 53 -16 94 -30 135 -46 17 -7 53 -20 80 -28 74 -23 118 -39 137 -48 10 -5 27 -9 37 -9 11 0 23 -4 26 -10 3 -5 15 -10 27 -10 11 0 32 -6 46 -14 15 -8 47 -19 72 -26 25 -7 54 -16 65 -20 11 -5 32 -11 46 -14 26 -6 26 -6 32 77 4 45 7 142 7 215 0 114 -2 134 -17 147 -94 76 -182 144 -202 154 -13 7 -125 96 -248 197 -124 101 -232 184 -241 184 -8 0 -49 31 -91 68 -42 38 -130 112 -196 165 -66 53 -131 105 -144 117 -14 11 -36 23 -50 27 -14 3 -32 12 -39 20 -15 14 -31 17 -34 6z"
       id="path4" />
    <path
       d="M5355 5920 c-3 -4 -8 -151 -11 -327 l-7 -319 26 -17 c15 -9 37 -17 49 -17 13 0 32 -7 42 -15 11 -8 32 -15 48 -15 15 0 28 -4 28 -10 0 -5 14 -10 30 -10 17 0 38 -4 48 -9 28 -14 85 -33 115 -38 15 -3 30 -9 33 -14 3 -5 18 -9 34 -9 16 0 32 -4 35 -10 3 -5 16 -10 28 -10 19 0 67 -15 132 -40 11 -4 40 -13 65 -20 25 -7 56 -17 70 -23 14 -6 31 -9 38 -8 8 1 24 -5 37 -13 14 -9 32 -16 42 -16 10 0 43 -10 73 -21 30 -12 67 -24 83 -26 15 -3 30 -9 33 -14 3 -5 20 -9 38 -9 19 0 39 -7 46 -15 7 -8 17 -12 22 -9 5 4 26 0 46 -8 86 -35 102 -37 111 -20 5 9 10 139 12 288 4 286 1 304 -42 304 -10 0 -21 5 -24 10 -3 6 -15 10 -25 10 -10 0 -33 8 -52 17 -61 31 -68 33 -87 33 -11 0 -23 5 -26 10 -3 6 -15 10 -27 10 -11 0 -34 7 -51 16 -58 30 -67 34 -80 34 -13 0 -59 19 -99 41 -10 5 -25 9 -33 9 -8 0 -23 4 -33 9 -29 15 -66 29 -92 37 -14 3 -43 14 -65 24 -37 15 -65 26 -165 61 -55 19 -83 30 -112 45 -14 8 -33 14 -43 14 -9 0 -35 9 -57 20 -23 11 -47 20 -54 20 -7 0 -25 6 -41 14 -69 34 -129 50 -138 36z"
       id="path6" />
    <path
       d="M5296 4918 c-3 -7 -7 -155 -11 -329 -6 -339 -7 -330 45 -342 14 -3 45 -11 70 -16 25 -6 90 -15 145 -21 137 -14 151 -16 220 -33 84 -22 159 -37 240 -48 163 -22 191 -26 216 -37 14 -6 80 -14 145 -17 65 -4 124 -10 129 -13 6 -4 21 -5 34 -3 13 1 34 -3 47 -9 12 -7 30 -10 38 -7 14 6 16 38 16 255 l0 248 -29 17 c-16 9 -41 17 -54 17 -14 0 -29 5 -32 10 -3 6 -21 10 -38 10 -18 0 -41 7 -51 15 -11 8 -32 15 -47 15 -15 0 -31 5 -34 10 -3 6 -21 10 -40 10 -19 0 -37 5 -40 10 -3 6 -21 10 -39 10 -19 0 -39 7 -46 15 -7 8 -27 15 -46 15 -18 0 -36 5 -39 10 -3 6 -21 10 -40 10 -19 0 -37 5 -40 10 -3 6 -19 10 -34 10 -15 0 -36 7 -47 15 -10 8 -33 15 -51 15 -17 0 -35 5 -38 10 -3 6 -21 10 -40 10 -19 0 -37 5 -40 10 -3 6 -18 10 -33 10 -15 1 -38 7 -52 15 -14 8 -37 14 -52 15 -15 0 -29 4 -32 9 -3 5 -20 11 -38 14 -18 2 -58 12 -88 22 -30 9 -70 19 -88 22 -18 3 -35 9 -38 14 -8 13 -44 11 -48 -3z"
       id="path8" />
  </g>
</svg>
